<svg xmlns="http://www.w3.org/2000/svg" version="1.1" xmlns:xlink="http://www.w3.org/1999/xlink" xmlns:svgjs="http://svgjs.dev/svgjs" width="1000" height="1000"><g clip-path="url(#SvgjsClipPath1429)"><rect width="1000" height="1000" fill="#000000"></rect><g transform="matrix(2.3026315789473686,0,0,2.3026315789473686,150,150)"><svg xmlns="http://www.w3.org/2000/svg" version="1.1" xmlns:xlink="http://www.w3.org/1999/xlink" xmlns:svgjs="http://svgjs.dev/svgjs" width="304" height="304"><svg version="1.1" xmlns="http://www.w3.org/2000/svg" width="304" height="304">
<path d="M0 0 C100.32 0 200.64 0 304 0 C304 100.32 304 200.64 304 304 C203.68 304 103.36 304 0 304 C0 203.68 0 103.36 0 0 Z " fill="#000000" transform="translate(0,0)"></path>
<path d="M0 0 C1.77762987 -0.00322879 3.55525658 -0.00906008 5.33287048 -0.01725769 C10.10302949 -0.03163579 14.87232938 -0.00905914 19.64238453 0.02160144 C24.6541356 0.04818313 29.66586612 0.04266626 34.67767334 0.04151917 C43.07643824 0.04431586 51.47487499 0.07020332 59.87353516 0.11132812 C69.57878982 0.15867545 79.2836874 0.17431538 88.9890492 0.17212147 C99.34933367 0.17009606 109.70948101 0.19089192 120.06972408 0.21846128 C123.04804697 0.22484975 126.02634771 0.22698393 129.00467682 0.22817802 C133.67690661 0.23119045 138.34883665 0.24949687 143.02096748 0.27967644 C144.734624 0.28843696 146.448315 0.29213045 148.16199303 0.29039383 C150.50026132 0.2889208 152.83769092 0.30589377 155.17584229 0.32762146 C157.13794333 0.33516276 157.13794333 0.33516276 159.13968277 0.34285641 C162.723811 0.750318 164.63845851 1.63524742 167.53417969 3.72875977 C167.29646106 8.72811252 167.04789464 13.7267682 166.78955078 18.72509766 C166.70328087 20.4231932 166.61990311 22.12143837 166.53955078 23.81982422 C166.42309653 26.27039555 166.29602266 28.72022847 166.16699219 31.17016602 C166.1335672 31.92149307 166.10014221 32.67282013 166.06570435 33.44691467 C165.31934493 46.92236704 158.5471192 59.73468077 148.53417969 68.72875977 C138.22296905 76.65569647 128.44397736 79.16238599 115.59667969 79.24047852 C114.47712891 79.25842972 113.35757813 79.27638092 112.20410156 79.2948761 C108.64749937 79.34860798 105.09102271 79.38264075 101.53417969 79.41625977 C99.17869264 79.44949272 96.82322305 79.48398772 94.46777344 79.51977539 C84.44226302 79.66397274 74.41621595 79.75318738 64.38964844 79.76782227 C63.36671692 79.77002022 63.36671692 79.77002022 62.32312012 79.77226257 C41.1178709 79.75055083 41.1178709 79.75055083 33.53417969 75.72875977 C31.35449219 73.53735352 31.35449219 73.53735352 29.65917969 71.16625977 C29.08425781 70.3812207 28.50933594 69.59618164 27.91699219 68.78735352 C24.40331501 63.55654031 25.01516481 57.85459732 25.53417969 51.72875977 C26.76267332 47.64314096 28.94559451 45.22152875 32.22167969 42.47875977 C39.93901086 38.40167915 46.81318127 37.29530268 55.48339844 37.32250977 C56.49964798 37.31167358 57.51589752 37.3008374 58.5629425 37.28967285 C62.8737049 37.24411395 67.18440137 37.23231818 71.49536133 37.2175293 C74.65825643 37.20181837 77.82065347 37.16882936 80.98339844 37.13500977 C81.95226486 37.13803101 82.92113129 37.14105225 83.9193573 37.14416504 C89.20955786 37.08548018 92.97165707 36.71327717 97.53417969 33.72875977 C100.42021597 30.68238813 102.41667602 27.79240948 103.53417969 23.72875977 C103.23898201 20.99511656 103.23898201 20.99511656 102.53417969 18.72875977 C97.99585215 16.91273459 97.99585215 16.91273459 93.53417969 17.72875977 C91.49931395 17.83899778 89.46087373 17.88526409 87.4230957 17.90234375 C85.49452477 17.92257851 85.49452477 17.92257851 83.5269928 17.94322205 C82.83696733 17.94828199 82.14694187 17.95334194 81.43600655 17.95855522 C79.2694215 17.97499514 77.10300785 17.99824137 74.93650818 18.02345276 C68.775224 18.0940937 62.61386447 18.15392171 56.45239258 18.20556641 C52.68280201 18.23764223 48.91340033 18.27900121 45.14396477 18.3257618 C43.71568192 18.3416307 42.28735552 18.35402062 40.8590107 18.36266899 C24.17693926 18.46501469 11.36329041 20.35829408 -1.13378906 32.12719727 C-9.04369487 40.95131329 -12.82428314 50.41081574 -12.77832031 62.10375977 C-12.79443359 62.91586914 -12.81054688 63.72797852 -12.82714844 64.56469727 C-12.8353105 74.75095378 -8.52184478 84.3336117 -1.54394531 91.77954102 C11.80062916 103.85689815 27.17092578 104.15812159 44.33901978 104.32409668 C47.33635758 104.35428529 50.33284769 104.40362591 53.32983398 104.45825195 C60.51891906 104.58729995 67.70819096 104.69673705 74.89794922 104.78051758 C99.01390026 105.09689404 120.64987064 110.07525534 138.50292969 127.59204102 C139.17324219 128.2971582 139.84355469 129.00227539 140.53417969 129.72875977 C141.16324219 130.36168945 141.79230469 130.99461914 142.44042969 131.64672852 C146.74953625 136.22987914 149.81006061 141.31351924 152.85839844 146.79907227 C154.51586631 149.78069942 154.51586631 149.78069942 156.53808594 152.69750977 C166.73791227 168.18687421 167.36786191 188.94753606 163.93359375 206.86157227 C162.44552192 212.47395473 160.27315834 217.61964247 157.53417969 222.72875977 C156.97085938 223.79610352 156.40753906 224.86344727 155.82714844 225.96313477 C147.81808349 239.54290765 135.46149609 251.40684262 121.53417969 258.72875977 C120.79425781 259.1193457 120.05433594 259.50993164 119.29199219 259.91235352 C109.3929376 264.720969 98.98475912 265.02418824 88.15917969 264.98754883 C86.86826416 264.99105347 85.57734863 264.99455811 84.24731445 264.99816895 C80.73903565 265.00720736 77.23087582 265.0037844 73.72259521 264.99741077 C70.03088081 264.99230609 66.3391758 264.99705453 62.64746094 265.00018311 C56.45082797 265.00380983 50.25424287 264.99905776 44.05761719 264.98950195 C36.91904362 264.97861989 29.78058435 264.98214639 22.64201355 264.99315476 C16.48539764 265.00226465 10.32881591 265.0034949 4.17219543 264.99827743 C0.5071933 264.99517799 -3.15775532 264.99469206 -6.82275391 265.0013504 C-10.91217693 265.00826242 -15.0014065 264.99865096 -19.09082031 264.98754883 C-20.88507446 264.99362152 -20.88507446 264.99362152 -22.71557617 264.99981689 C-40.65516879 264.91002272 -53.09980427 259.73301338 -66.05957031 247.30688477 C-77.34404139 235.21638004 -81.68740555 222.92620542 -82.20874023 206.5480957 C-82.27864207 204.46919073 -82.37454327 202.39248691 -82.47167969 200.31469727 C-82.54032227 198.34629883 -82.54032227 198.34629883 -82.61035156 196.33813477 C-82.65522705 195.1415625 -82.70010254 193.94499023 -82.74633789 192.7121582 C-82.46582031 189.72875977 -82.46582031 189.72875977 -81.24060631 188.0661068 C-78.95080478 186.34068227 -77.64051642 186.35166825 -74.78872681 186.34780884 C-73.34665863 186.33511963 -73.34665863 186.33511963 -71.87545776 186.32217407 C-70.29524338 186.33128311 -70.29524338 186.33128311 -68.68310547 186.34057617 C-67.57213501 186.33531921 -66.46116455 186.33006226 -65.31652832 186.324646 C-61.62917162 186.31140234 -57.94224423 186.3202058 -54.25488281 186.33032227 C-51.68956418 186.32830136 -49.12424611 186.32538978 -46.55892944 186.32162476 C-41.17024772 186.3171943 -35.78172725 186.32336408 -30.39306641 186.33764648 C-24.19303451 186.35389135 -17.99329986 186.34874663 -11.79327548 186.33216727 C-5.80731651 186.3168091 0.1784992 186.31856982 6.1644783 186.32731247 C8.69920519 186.32930405 11.23393973 186.32689212 13.76865768 186.31987381 C45.67932624 186.25097184 45.67932624 186.25097184 56.53417969 193.72875977 C60.65389497 197.84847505 61.21254211 203.21431379 61.62011719 208.81469727 C61.45194764 214.51717358 59.64299089 219.42312619 55.77636719 223.65063477 C51.47605151 227.42915481 48.84599476 228.85208571 43.06225586 228.85473633 C41.91734177 228.85854309 40.77242767 228.86234985 39.59281921 228.86627197 C38.35014786 228.86729919 37.1074765 228.86832642 35.82714844 228.86938477 C33.21320742 228.88771101 30.59927488 228.90728115 27.98535156 228.92797852 C23.8507696 228.95833937 19.7164911 228.98108053 15.58178711 228.97924805 C11.60073639 228.97830896 7.62050658 229.01709457 3.63964844 229.05688477 C1.78475044 229.04628021 1.78475044 229.04628021 -0.10762024 229.03546143 C-6.9702703 228.88352147 -6.9702703 228.88352147 -12.70288086 232.0871582 C-15.84237289 236.79139637 -17.05383326 241.08383549 -16.46582031 246.72875977 C-15.01439216 250.9334588 -15.01439216 250.9334588 -11.71582031 253.60375977 C-6.08727365 253.99393817 -6.08727365 253.99393817 -0.53872681 253.23753357 C1.75243432 252.67519139 3.84345412 252.54302358 6.20068359 252.46337891 C7.12329987 252.42986832 8.04591614 252.39635773 8.99649048 252.36183167 C9.99119354 252.3295195 10.98589661 252.29720734 12.01074219 252.26391602 C14.1487674 252.18525898 16.28678809 252.10647873 18.42480469 252.02758789 C21.77010781 251.90912057 25.11546362 251.79274347 28.4609375 251.67919922 C44.62641273 251.12499157 44.62641273 251.12499157 60.74511719 249.82641602 C61.45568268 249.75721451 62.16624817 249.688013 62.89834595 249.61671448 C69.41343667 248.86440862 74.26239801 246.50631033 79.53417969 242.72875977 C80.84128906 241.82770508 80.84128906 241.82770508 82.17480469 240.90844727 C92.62956838 233.17693041 98.46085819 223.33343957 101.53417969 210.72875977 C103.16674363 198.90262582 100.38068705 186.56816888 93.40917969 176.79125977 C87.27615942 169.7229205 79.53393584 164.31250479 70.53417969 161.72875977 C69.73109375 161.46450195 68.92800781 161.20024414 68.10058594 160.92797852 C58.60228251 157.87753403 49.72074125 157.6119226 39.81152344 157.73657227 C37.30827236 157.75409915 34.80501688 157.7710064 32.30175781 157.78735352 C28.39416048 157.818174 24.4867888 157.8535797 20.5793457 157.90014648 C-13.83246199 158.28799564 -13.83246199 158.28799564 -29.02832031 150.79125977 C-29.82641113 150.40284912 -30.62450195 150.01443848 -31.44677734 149.61425781 C-39.54927346 145.475345 -46.03603996 140.10345485 -52.46582031 133.72875977 C-53.04090332 133.16995117 -53.61598633 132.61114258 -54.20849609 132.03540039 C-70.24427885 116.29748218 -79.11768744 97.0446817 -79.71582031 74.47875977 C-79.60610369 62.72536634 -76.64140254 50.19522709 -69.46582031 40.72875977 C-68.87486965 39.51301544 -68.31206158 38.28318456 -67.77832031 37.04125977 C-65.64532654 32.62703327 -62.66463234 29.32821974 -59.34082031 25.76000977 C-57.36216854 23.68809984 -57.36216854 23.68809984 -55.46582031 21.04125977 C-52.54239896 17.66105383 -49.13881609 15.24793488 -45.46582031 12.72875977 C-44.758125 12.2324707 -44.05042969 11.73618164 -43.32128906 11.22485352 C-29.68352653 2.32662004 -15.92975986 -0.17095773 0 0 Z " fill="#F8F5F1" transform="translate(105.4658203125,23.271240234375)"></path>
<path d="M0 0 C1.09054688 0.02320313 2.18109375 0.04640625 3.3046875 0.0703125 C4.40039062 0.08835938 5.49609375 0.10640625 6.625 0.125 C7.88957031 0.15980469 7.88957031 0.15980469 9.1796875 0.1953125 C9.1796875 1.5153125 9.1796875 2.8353125 9.1796875 4.1953125 C7.60546875 5.50390625 7.60546875 5.50390625 5.4921875 6.6328125 C1.77978303 8.78483681 -0.90943424 10.99334641 -3.8203125 14.1953125 C-4.47257812 14.86691406 -5.12484375 15.53851563 -5.796875 16.23046875 C-10.29601141 20.99955335 -12.9758311 24.94388226 -14.8203125 31.1953125 C-15.35431758 32.5733061 -15.89600558 33.94834687 -16.4453125 35.3203125 C-17.66862852 38.63159199 -18.4736011 41.65885617 -18.8203125 45.1953125 C-18.89636719 45.93910156 -18.97242188 46.68289062 -19.05078125 47.44921875 C-19.72434066 59.66430971 -15.1868102 70.67752189 -8.8828125 80.8828125 C-8.27300537 81.87124146 -8.27300537 81.87124146 -7.65087891 82.87963867 C-4.16291459 88.22623902 -0.02956771 92.2492589 5.6796875 95.2578125 C7.91351216 96.44590062 9.81562953 97.66733674 11.86369324 99.1875 C15.49496216 101.38620921 17.95004929 101.93794702 22.1418457 102.41015625 C23.11962337 102.52229713 23.11962337 102.52229713 24.11715412 102.63670349 C30.99076278 103.37633666 37.87649968 103.60667679 44.78515625 103.7578125 C46.12505086 103.79407551 47.46492006 103.83128829 48.80476379 103.86938477 C53.69930229 104.00658455 58.59421705 104.12719858 63.48919678 104.24743652 C67.65635339 104.35037668 71.82321861 104.46026385 75.98995399 104.57907104 C77.91046532 104.63112681 79.8312373 104.67327337 81.7519989 104.71508789 C93.32896496 105.0398261 103.57793183 106.44396746 114.1796875 111.1953125 C115.28699219 111.64519531 116.39429688 112.09507812 117.53515625 112.55859375 C135.39253438 120.57814513 148.12681046 134.5462701 155.44140625 152.74609375 C158.6509093 163.39349275 159.89306104 174.09091306 159.1796875 185.1953125 C159.12167969 186.10410156 159.06367188 187.01289063 159.00390625 187.94921875 C157.29977801 201.72596629 147.6937809 218.35391578 137.1796875 227.1953125 C125.37313113 236.13176677 111.55410954 242.71039761 96.609375 240.66015625 C95.80757812 240.50675781 95.00578125 240.35335937 94.1796875 240.1953125 C93.8496875 238.8753125 93.5196875 237.5553125 93.1796875 236.1953125 C99.8119745 231.38365331 99.8119745 231.38365331 102.7421875 229.8828125 C111.11400303 224.08694021 115.86547237 212.49876334 119.1796875 203.1953125 C120.87201843 189.81179536 120.27008448 176.86623143 113.1796875 165.1953125 C112.36757813 163.81859375 112.36757813 163.81859375 111.5390625 162.4140625 C104.87821008 152.0804036 96.18852511 146.27670949 85.4375 140.859375 C82.1796875 139.1953125 82.1796875 139.1953125 79.1796875 137.1953125 C69.39991662 135.1936392 59.58950278 134.94366064 49.63671875 135.02734375 C48.29359179 135.0263996 46.95046502 135.02356049 45.60734558 135.01896667 C39.99834815 135.00049724 34.38987582 134.99321661 28.78100586 135.04077148 C2.2197078 135.24468521 -19.7454482 131.29780433 -39.6796875 112.328125 C-40.73929688 111.27238281 -40.73929688 111.27238281 -41.8203125 110.1953125 C-42.38234375 109.65648437 -42.944375 109.11765625 -43.5234375 108.5625 C-50.03478837 101.74271672 -54.01246499 92.05834421 -56.8203125 83.1953125 C-57.10132813 82.47730469 -57.38234375 81.75929688 -57.671875 81.01953125 C-63.15195375 65.88012176 -59.57768093 50.76082733 -53.2109375 36.62109375 C-48.19004229 26.70597728 -42.04179702 19.34296885 -32.8203125 13.1953125 C-32.41683594 12.71964844 -32.01335937 12.24398437 -31.59765625 11.75390625 C-28.86091826 9.35399755 -25.57221181 8.34964333 -22.1953125 7.1328125 C-21.47907715 6.86823242 -20.7628418 6.60365234 -20.02490234 6.33105469 C-16.19975623 4.94780429 -12.43832497 3.76087877 -8.4453125 2.9453125 C-4.64859691 2.15978514 -3.68511223 0.25520168 0 0 Z " fill="#010101" transform="translate(98.8203125,34.8046875)"></path>
<path d="M0 0 C4.808282 5.18055158 3.63464548 12.40814718 3.625 19.0625 C3.62646027 19.78319672 3.62792053 20.50389343 3.62942505 21.24642944 C3.59494064 33.56834438 1.87181998 44.04707894 -4 55 C-4.56332031 56.06734375 -5.12664062 57.1346875 -5.70703125 58.234375 C-13.7160962 71.81414789 -26.0726836 83.67808286 -40 91 C-40.73992187 91.39058594 -41.47984375 91.78117187 -42.2421875 92.18359375 C-52.20520742 97.02328136 -62.65651775 97.29159974 -73.54956055 97.22705078 C-75.51243767 97.22748886 -75.51243767 97.22748886 -77.51496887 97.22793579 C-81.06797966 97.22850456 -84.62085265 97.21682826 -88.1738317 97.20278788 C-91.90004493 97.19020032 -95.62626207 97.18910374 -99.35249329 97.18673706 C-106.39285139 97.1805457 -113.43314663 97.16416695 -120.47347718 97.14403808 C-128.49533619 97.1216057 -136.51719836 97.11066728 -144.53908098 97.10064721 C-161.02609065 97.07979837 -177.51303728 97.04466848 -194 97 C-194 96.67 -194 96.34 -194 96 C-173.62256784 95.31054057 -153.26471337 94.90931921 -132.875 94.97265625 C-131.90006592 94.97533886 -130.92513184 94.97802147 -129.9206543 94.98078537 C-120.89642359 95.00684556 -111.87227574 95.04644955 -102.84814453 95.09594727 C-97.83116169 95.12289599 -92.81422202 95.13981167 -87.79718018 95.15081596 C-85.92195992 95.15694081 -84.04674737 95.166835 -82.17156982 95.18089485 C-67.2199118 95.29250434 -53.52466314 95.17376828 -40 88 C-39.26652344 87.66484375 -38.53304687 87.3296875 -37.77734375 86.984375 C-27.01004813 81.74728748 -17.64528919 71.79213249 -11 62 C-10.49210938 61.29230469 -9.98421875 60.58460938 -9.4609375 59.85546875 C2.28538328 42.17575004 3.76581738 20.52552165 0 0 Z " fill="#A8A7A5" transform="translate(267,191)"></path>
<path d="M0 0 C1.09054688 0.02320313 2.18109375 0.04640625 3.3046875 0.0703125 C4.40039062 0.08835938 5.49609375 0.10640625 6.625 0.125 C7.88957031 0.15980469 7.88957031 0.15980469 9.1796875 0.1953125 C9.1796875 0.5253125 9.1796875 0.8553125 9.1796875 1.1953125 C8.43203125 1.23269531 7.684375 1.27007812 6.9140625 1.30859375 C5.92921875 1.37433594 4.944375 1.44007812 3.9296875 1.5078125 C2.95515625 1.56582031 1.980625 1.62382813 0.9765625 1.68359375 C-2.130907 2.25213915 -3.38100915 3.2726844 -5.8203125 5.1953125 C-7.94140625 5.75 -7.94140625 5.75 -10.2578125 6.0703125 C-15.86382028 7.03945841 -20.87988041 9.0285796 -26.1328125 11.171875 C-28.8203125 12.1953125 -28.8203125 12.1953125 -30.8203125 12.1953125 C-31.06265625 12.78828125 -31.305 13.38125 -31.5546875 13.9921875 C-33.05654014 16.60652358 -34.61023726 17.72158631 -37.0703125 19.4453125 C-48.78753112 28.31290355 -55.24843467 42.97691973 -57.8203125 57.1953125 C-58.41752558 63.86767565 -58.87158992 71.04904339 -56.734375 77.4453125 C-55.75283088 80.39833412 -55.94664702 81.32852586 -56.8203125 84.1953125 C-59.41451567 77.68460375 -60.33952593 71.93534974 -60.2578125 64.9453125 C-60.24951416 64.02363281 -60.24121582 63.10195312 -60.23266602 62.15234375 C-59.83621997 46.05748073 -52.99951035 31.83459971 -41.95703125 20.2109375 C-39.43809561 17.83475689 -36.7680183 16.00413197 -33.8203125 14.1953125 C-33.0365625 13.3496875 -32.2528125 12.5040625 -31.4453125 11.6328125 C-28.1459094 8.56908105 -25.02151459 7.57184273 -20.8203125 6.1953125 C-20.03011719 5.85886719 -19.23992187 5.52242187 -18.42578125 5.17578125 C-14.77290089 3.80115911 -11.09149382 3.34060656 -7.24609375 2.7578125 C-3.98353791 2.00127781 -3.46032438 0.23963465 0 0 Z " fill="#9F9E9D" transform="translate(97.8203125,33.8046875)"></path>
<path d="M0 0 C0 0.66 0 1.32 0 2 C-0.94875 1.979375 -1.8975 1.95875 -2.875 1.9375 C-5.90666283 1.77448174 -5.90666283 1.77448174 -8 3 C-10.30724017 3.12120299 -12.61796828 3.1775357 -14.92822266 3.20532227 C-15.64052536 3.21522186 -16.35282806 3.22512146 -17.0867157 3.23532104 C-19.44579726 3.26695858 -21.80489897 3.2917023 -24.1640625 3.31640625 C-25.79788747 3.33697384 -27.43170708 3.35797026 -29.06552124 3.37937927 C-33.36942216 3.43462013 -37.67337126 3.4840205 -41.97735596 3.53222656 C-46.36776018 3.5824269 -50.75809429 3.63812061 -55.1484375 3.69335938 C-63.76556575 3.80096558 -72.38275258 3.90240506 -81 4 C-81 3.67 -81 3.34 -81 3 C-79.35 3 -77.7 3 -76 3 C-76 2.34 -76 1.68 -76 1 C-67.12442101 0.86901302 -58.24883408 0.73858106 -49.37323666 0.60884857 C-45.25150595 0.54858497 -41.12977818 0.48813353 -37.00805664 0.42724609 C-33.02694396 0.3684428 -29.04582422 0.31014171 -25.06469917 0.25218201 C-23.54933983 0.2300335 -22.03398307 0.20770709 -20.51862907 0.18519592 C-18.38864676 0.15358526 -16.25865595 0.12261954 -14.12866211 0.09179688 C-12.9184288 0.07403198 -11.7081955 0.05626709 -10.46128845 0.03796387 C-6.97389032 -0.00028637 -3.48757776 -0.00655085 0 0 Z " fill="#B3B1AF" transform="translate(207,38)"></path>
<path d="M0 0 C0.66 0.33 1.32 0.66 2 1 C1.33613281 1.59167969 0.67226562 2.18335938 -0.01171875 2.79296875 C-2.68429215 5.18462933 -5.34217004 7.59198149 -8 10 C-8.9075 10.804375 -9.815 11.60875 -10.75 12.4375 C-19.00104405 21.83452239 -21.32078102 30.64621604 -21.125 42.875 C-21.11597656 43.94492188 -21.10695313 45.01484375 -21.09765625 46.1171875 C-21.07419342 48.74502439 -21.04136459 51.37239406 -21 54 C-25.5046434 47.24303489 -23.80591159 35.84504565 -23 28 C-20.31371602 15.91452028 -9.58228867 6.8983606 0 0 Z " fill="#A1A0A0" transform="translate(114,45)"></path>
<path d="M0 0 C0 3 0 3 -2.0546875 5.26953125 C-13.13132771 15.25691737 -25.56480277 24.29683072 -41 24 C-41 23.67 -41 23.34 -41 23 C-39.741875 22.773125 -38.48375 22.54625 -37.1875 22.3125 C-31.39047602 21.02022778 -26.299333 18.63038218 -21 16 C-20.24847656 15.65324219 -19.49695313 15.30648438 -18.72265625 14.94921875 C-11.40258098 11.30903665 -5.82344161 5.62637082 0 0 Z " fill="#91908F" transform="translate(248,263)"></path>
<path d="M0 0 C1.32 0 2.64 0 4 0 C4 0.66 4 1.32 4 2 C2.88625 2.2475 1.7725 2.495 0.625 2.75 C-3.59853803 4.20639242 -3.21716675 4.36142953 -5 8 C-7.05859375 9.81640625 -7.05859375 9.81640625 -9.4375 11.5625 C-12.15643807 13.5737079 -14.67433291 15.53972839 -17 18 C-17.66 17.67 -18.32 17.34 -19 17 C-14.90566533 12.72279182 -11.17803716 8.93888595 -6 6 C-4.29503463 4.37253306 -2.62102968 2.71108689 -1 1 C-0.67 0.67 -0.34 0.34 0 0 Z " fill="#A7A6A5" transform="translate(70,42)"></path>
<path d="M0 0 C0.66 0.33 1.32 0.66 2 1 C-2.625 6.875 -2.625 6.875 -6 8 C-4.55746343 4.63408134 -2.66735273 2.48952921 0 0 Z " fill="#464544" transform="translate(96,252)"></path>
<path d="M0 0 C0 0.66 0 1.32 0 2 C-2.31 2.66 -4.62 3.32 -7 4 C-7 4.66 -7 5.32 -7 6 C-7.66 6 -8.32 6 -9 6 C-6.97377245 1.32409027 -5.29661848 0 0 0 Z " fill="#B7B6B5" transform="translate(74,42)"></path>
</svg></svg></g></g><defs><clipPath id="SvgjsClipPath1429"><rect width="1000" height="1000" x="0" y="0" rx="500" ry="500"></rect></clipPath></defs></svg>